<?xml version="1.0" encoding="utf-8"?>
<!-- Generator: Adobe Illustrator 23.1.0, SVG Export Plug-In . SVG Version: 6.00 Build 0)  -->
<svg version="1.1" id="Layer_1" xmlns="http://www.w3.org/2000/svg" xmlns:xlink="http://www.w3.org/1999/xlink" x="0px" y="0px"
	 viewBox="0 0 33.4 30.7" style="enable-background:new 0 0 33.4 30.7;" xml:space="preserve">
<g>
	<path d="M30.8,16.9c-1.1,1.5-2.3,2.9-3.6,4.2c-3.2,3.1-6.4,6.1-9.7,9.1c-0.6,0.6-1.1,0.6-1.7,0c-3-2.8-6-5.6-9-8.5
		C5,20,3.3,18.2,2,16.1C0.7,14-0.1,11.8,0,9.4c0.2-4.6,2.8-8,7.4-9.1c2.7-0.7,5.2,0,7.3,1.7C15.4,2.6,16,3.3,16.8,4
		c1-1.3,2.2-2.4,3.7-3.1c3.3-1.6,6.4-0.9,9.3,1.1c2,1.5,3.1,3.6,3.5,6C33.9,11.4,32.8,14.3,30.8,16.9z"/>
</g>
</svg>
