<?xml version="1.0" encoding="utf-8"?>
<!-- Generator: Adobe Illustrator 23.1.0, SVG Export Plug-In . SVG Version: 6.00 Build 0)  -->
<svg version="1.1" id="Layer_1" xmlns="http://www.w3.org/2000/svg" xmlns:xlink="http://www.w3.org/1999/xlink" x="0px" y="0px"
	 viewBox="0 0 33.4 30.7" style="enable-background:new 0 0 33.4 30.7;" xml:space="preserve">
<g>
	<path d="M16.8,4c1-1.3,2.2-2.4,3.7-3.1c3.3-1.6,6.4-0.9,9.3,1.1c2,1.5,3.1,3.6,3.5,6c0.6,3.3-0.5,6.3-2.4,8.9
		c-1.1,1.5-2.3,2.9-3.6,4.2c-3.2,3.1-6.4,6.1-9.7,9.1c-0.6,0.6-1.1,0.6-1.7,0c-3-2.8-6-5.6-9-8.5C5,20,3.3,18.2,2,16.1
		C0.7,14-0.1,11.8,0,9.4c0.2-4.6,2.8-8,7.4-9.1c2.7-0.7,5.2,0,7.3,1.7C15.4,2.6,16,3.3,16.8,4z M16.7,28.5c0.2-0.2,0.4-0.3,0.6-0.5
		c0.7-0.7,1.4-1.3,2.1-2c2.5-2.3,5-4.7,7.4-7c1.7-1.7,3.2-3.6,4.1-5.8c1.4-3.3,0.7-7.2-1.7-9.3c-2.6-2.2-6-2.9-8.9-0.7
		c-1,0.7-1.8,1.7-2.7,2.6c-0.6,0.6-1.1,0.6-1.7,0c-0.6-0.7-1.2-1.4-1.8-2C10.3,0.4,5.6,1.9,3.3,5c-1.8,2.5-1.9,5.4-0.7,8.2
		c0.9,2.3,2.5,4.2,4.2,5.9c1.3,1.4,2.7,2.7,4.1,4C12.8,24.9,14.7,26.7,16.7,28.5z"/>
</g>
</svg>
